<svg width="8" height="10" viewBox="0 0 8 10" fill="none" xmlns="http://www.w3.org/2000/svg">
<path d="M0.174063 10V0.816H1.57406L3.33806 5.716C3.45006 6.03333 3.5574 6.35533 3.66006 6.682C3.77206 6.99933 3.88406 7.31667 3.99606 7.634H4.05206C4.16406 7.31667 4.26673 6.99933 4.36006 6.682C4.46273 6.35533 4.57006 6.03333 4.68206 5.716L6.41806 0.816H7.83206V10H6.74006V4.946C6.74006 4.53533 6.75873 4.08267 6.79606 3.588C6.8334 3.09333 6.86606 2.64067 6.89406 2.23H6.83806L6.11006 4.316L4.37406 9.076H3.60406L1.86806 4.316L1.14006 2.23H1.08406C1.11206 2.64067 1.14006 3.09333 1.16806 3.588C1.2054 4.08267 1.22406 4.53533 1.22406 4.946V10H0.174063Z" fill="#A6A6A6"/>
</svg>
