<svg width="8" height="11" viewBox="0 0 8 11" fill="none" xmlns="http://www.w3.org/2000/svg">
<path d="M4.06874 10.168C3.42474 10.168 2.82741 10.0467 2.27674 9.804C1.72608 9.56133 1.25008 9.23 0.848742 8.81L1.54874 7.998C1.87541 8.34333 2.25808 8.62333 2.69674 8.838C3.14474 9.04333 3.60674 9.146 4.08274 9.146C4.68941 9.146 5.16074 9.01067 5.49674 8.74C5.83274 8.46 6.00074 8.096 6.00074 7.648C6.00074 7.41467 5.95874 7.21867 5.87474 7.06C5.80008 6.892 5.69274 6.752 5.55274 6.64C5.42208 6.51867 5.26341 6.41133 5.07674 6.318C4.89008 6.22467 4.68941 6.12667 4.47474 6.024L3.15874 5.45C2.94408 5.35667 2.72474 5.24467 2.50074 5.114C2.27674 4.98333 2.07608 4.82467 1.89874 4.638C1.72141 4.45133 1.57674 4.232 1.46474 3.98C1.35274 3.71867 1.29674 3.42 1.29674 3.084C1.29674 2.73867 1.36674 2.41667 1.50674 2.118C1.65608 1.81933 1.85674 1.56267 2.10874 1.348C2.37008 1.124 2.67341 0.951333 3.01874 0.83C3.37341 0.708666 3.76074 0.647999 4.18074 0.647999C4.73141 0.647999 5.24008 0.755333 5.70674 0.969999C6.17341 1.17533 6.57008 1.446 6.89674 1.782L6.26674 2.538C5.98674 2.26733 5.67408 2.05733 5.32874 1.908C4.99274 1.74933 4.61008 1.67 4.18074 1.67C3.66741 1.67 3.25208 1.79133 2.93474 2.034C2.62674 2.26733 2.47274 2.594 2.47274 3.014C2.47274 3.238 2.51474 3.42933 2.59874 3.588C2.69208 3.73733 2.81341 3.87267 2.96274 3.994C3.11208 4.106 3.27541 4.20867 3.45274 4.302C3.63008 4.386 3.81208 4.46533 3.99874 4.54L5.30074 5.1C5.56208 5.212 5.80941 5.34267 6.04274 5.492C6.27608 5.632 6.47674 5.8 6.64474 5.996C6.81274 6.18267 6.94341 6.40667 7.03674 6.668C7.13941 6.92 7.19074 7.214 7.19074 7.55C7.19074 7.914 7.11608 8.25467 6.96674 8.572C6.82674 8.88933 6.62141 9.16933 6.35074 9.412C6.08008 9.64533 5.75341 9.832 5.37074 9.972C4.98808 10.1027 4.55408 10.168 4.06874 10.168Z" fill="#1D1F22"/>
</svg>
